<mxfile host="app.diagrams.net" modified="2023-08-04T02:15:13.296Z" agent="Mozilla/5.0 (Windows NT 10.0; Win64; x64) AppleWebKit/537.36 (KHTML, like Gecko) Chrome/115.0.0.0 Safari/537.36" etag="xj8gPerO8pfmVcTI6GV9" version="21.6.6" type="github">
  <diagram name="Page-1" id="03018318-947c-dd8e-b7a3-06fadd420f32">
    <mxGraphModel dx="1434" dy="768" grid="1" gridSize="10" guides="1" tooltips="1" connect="1" arrows="1" fold="1" page="1" pageScale="1" pageWidth="1100" pageHeight="850" background="#ffffff" math="0" shadow="0">
      <root>
        <mxCell id="0" />
        <mxCell id="1" parent="0" />
        <mxCell id="677b7b8949515195-1" value="" style="whiteSpace=wrap;html=1;rounded=0;shadow=0;labelBackgroundColor=none;strokeColor=#000000;strokeWidth=1;fillColor=none;fontFamily=Verdana;fontSize=12;fontColor=#000000;align=center;comic=1;" parent="1" vertex="1">
          <mxGeometry x="10" y="20" width="1070" height="1070" as="geometry" />
        </mxCell>
        <mxCell id="677b7b8949515195-2" value="LOGO" style="whiteSpace=wrap;html=1;rounded=0;shadow=0;labelBackgroundColor=none;strokeWidth=1;fontFamily=Verdana;fontSize=28;align=center;comic=1;" parent="1" vertex="1">
          <mxGeometry x="40" y="60" width="190" height="50" as="geometry" />
        </mxCell>
        <mxCell id="677b7b8949515195-3" value="Search" style="strokeWidth=1;shadow=0;dashed=0;align=center;html=1;shape=mxgraph.mockup.forms.searchBox;strokeColor=#999999;mainText=;strokeColor2=#008cff;fontColor=#666666;fontSize=17;align=left;spacingLeft=3;rounded=0;labelBackgroundColor=none;comic=1;" parent="1" vertex="1">
          <mxGeometry x="840" y="95" width="220" height="30" as="geometry" />
        </mxCell>
        <mxCell id="677b7b8949515195-4" value="Topic 1" style="text;html=1;points=[];align=left;verticalAlign=top;spacingTop=-4;fontSize=14;fontFamily=Verdana" parent="1" vertex="1">
          <mxGeometry x="780" y="40" width="60" height="20" as="geometry" />
        </mxCell>
        <mxCell id="677b7b8949515195-5" value="Topic 2" style="text;html=1;points=[];align=left;verticalAlign=top;spacingTop=-4;fontSize=14;fontFamily=Verdana" parent="1" vertex="1">
          <mxGeometry x="860" y="40" width="60" height="20" as="geometry" />
        </mxCell>
        <mxCell id="677b7b8949515195-6" value="Topic 3" style="text;html=1;points=[];align=left;verticalAlign=top;spacingTop=-4;fontSize=14;fontFamily=Verdana" parent="1" vertex="1">
          <mxGeometry x="930" y="40" width="60" height="20" as="geometry" />
        </mxCell>
        <mxCell id="677b7b8949515195-7" value="Topic 4" style="text;html=1;points=[];align=left;verticalAlign=top;spacingTop=-4;fontSize=14;fontFamily=Verdana" parent="1" vertex="1">
          <mxGeometry x="1000" y="40" width="60" height="20" as="geometry" />
        </mxCell>
        <mxCell id="677b7b8949515195-9" value="" style="line;strokeWidth=1;html=1;rounded=0;shadow=0;labelBackgroundColor=none;fillColor=none;fontFamily=Verdana;fontSize=14;fontColor=#000000;align=center;comic=1;" parent="1" vertex="1">
          <mxGeometry x="20" y="140" width="1060" height="10" as="geometry" />
        </mxCell>
        <mxCell id="677b7b8949515195-10" value="" style="whiteSpace=wrap;html=1;rounded=0;shadow=0;labelBackgroundColor=none;strokeWidth=1;fillColor=none;fontFamily=Verdana;fontSize=12;align=center;comic=1;" parent="1" vertex="1">
          <mxGeometry x="30" y="160" width="1040" height="50" as="geometry" />
        </mxCell>
        <mxCell id="677b7b8949515195-11" value="Section 1" style="text;html=1;points=[];align=left;verticalAlign=top;spacingTop=-4;fontSize=14;fontFamily=Verdana" parent="1" vertex="1">
          <mxGeometry x="330" y="175" width="60" height="20" as="geometry" />
        </mxCell>
        <mxCell id="677b7b8949515195-12" value="Section 2" style="text;html=1;points=[];align=left;verticalAlign=top;spacingTop=-4;fontSize=14;fontFamily=Verdana" parent="1" vertex="1">
          <mxGeometry x="477" y="175" width="60" height="20" as="geometry" />
        </mxCell>
        <mxCell id="677b7b8949515195-13" value="Section 3" style="text;html=1;points=[];align=left;verticalAlign=top;spacingTop=-4;fontSize=14;fontFamily=Verdana" parent="1" vertex="1">
          <mxGeometry x="623" y="175" width="60" height="20" as="geometry" />
        </mxCell>
        <mxCell id="677b7b8949515195-14" value="Section 4" style="text;html=1;points=[];align=left;verticalAlign=top;spacingTop=-4;fontSize=14;fontFamily=Verdana" parent="1" vertex="1">
          <mxGeometry x="770" y="175" width="60" height="20" as="geometry" />
        </mxCell>
        <mxCell id="677b7b8949515195-26" value="" style="whiteSpace=wrap;html=1;rounded=0;shadow=0;labelBackgroundColor=none;strokeWidth=1;fillColor=none;fontFamily=Verdana;fontSize=12;align=center;comic=1;" parent="1" vertex="1">
          <mxGeometry x="47.5" y="220" width="1040" height="550" as="geometry" />
        </mxCell>
        <mxCell id="677b7b8949515195-42" value="Cotação" style="text;html=1;points=[];align=left;verticalAlign=top;spacingTop=-4;fontSize=14;fontFamily=Verdana" parent="1" vertex="1">
          <mxGeometry x="60" y="240" width="170" height="20" as="geometry" />
        </mxCell>
        <mxCell id="eATVURtBOzmaOET8jVd0-1" value="01/01/2020" style="rounded=1;whiteSpace=wrap;html=1;" vertex="1" parent="1">
          <mxGeometry x="810" y="300" width="120" height="20" as="geometry" />
        </mxCell>
        <mxCell id="eATVURtBOzmaOET8jVd0-2" value="Código" style="text;html=1;points=[];align=left;verticalAlign=top;spacingTop=-4;fontSize=14;fontFamily=Verdana" vertex="1" parent="1">
          <mxGeometry x="60" y="280" width="170" height="20" as="geometry" />
        </mxCell>
        <mxCell id="eATVURtBOzmaOET8jVd0-3" value="" style="rounded=1;whiteSpace=wrap;html=1;" vertex="1" parent="1">
          <mxGeometry x="200" y="300" width="600" height="50" as="geometry" />
        </mxCell>
        <mxCell id="eATVURtBOzmaOET8jVd0-4" value="Observação" style="text;html=1;points=[];align=left;verticalAlign=top;spacingTop=-4;fontSize=14;fontFamily=Verdana" vertex="1" parent="1">
          <mxGeometry x="200" y="280" width="170" height="20" as="geometry" />
        </mxCell>
        <mxCell id="eATVURtBOzmaOET8jVd0-8" value="2023/001" style="rounded=1;whiteSpace=wrap;html=1;" vertex="1" parent="1">
          <mxGeometry x="60" y="300" width="120" height="20" as="geometry" />
        </mxCell>
        <mxCell id="eATVURtBOzmaOET8jVd0-9" value="Data de Validação" style="text;html=1;points=[];align=left;verticalAlign=top;spacingTop=-4;fontSize=14;fontFamily=Verdana" vertex="1" parent="1">
          <mxGeometry x="810" y="280" width="170" height="20" as="geometry" />
        </mxCell>
        <mxCell id="eATVURtBOzmaOET8jVd0-10" value="PRODUTO" style="text;html=1;points=[];align=left;verticalAlign=top;spacingTop=-4;fontSize=14;fontFamily=Verdana" vertex="1" parent="1">
          <mxGeometry x="60" y="385" width="170" height="20" as="geometry" />
        </mxCell>
        <mxCell id="eATVURtBOzmaOET8jVd0-11" value="ARROZ CAMIL" style="rounded=1;whiteSpace=wrap;html=1;align=left;" vertex="1" parent="1">
          <mxGeometry x="60" y="415" width="510" height="20" as="geometry" />
        </mxCell>
        <mxCell id="eATVURtBOzmaOET8jVd0-12" value="" style="shape=table;startSize=30;container=1;collapsible=0;childLayout=tableLayout;strokeColor=default;fontSize=16;" vertex="1" parent="1">
          <mxGeometry x="60" y="460" width="890" height="110" as="geometry" />
        </mxCell>
        <mxCell id="eATVURtBOzmaOET8jVd0-13" value="" style="shape=tableRow;horizontal=0;startSize=0;swimlaneHead=0;swimlaneBody=0;strokeColor=inherit;top=0;left=0;bottom=0;right=0;collapsible=0;dropTarget=0;fillColor=none;points=[[0,0.5],[1,0.5]];portConstraint=eastwest;fontSize=16;" vertex="1" parent="eATVURtBOzmaOET8jVd0-12">
          <mxGeometry y="30" width="890" height="20" as="geometry" />
        </mxCell>
        <mxCell id="eATVURtBOzmaOET8jVd0-14" value="ean" style="shape=partialRectangle;html=1;whiteSpace=wrap;connectable=0;strokeColor=inherit;overflow=hidden;fillColor=none;top=0;left=0;bottom=0;right=0;pointerEvents=1;fontSize=16;" vertex="1" parent="eATVURtBOzmaOET8jVd0-13">
          <mxGeometry width="150" height="20" as="geometry">
            <mxRectangle width="150" height="20" as="alternateBounds" />
          </mxGeometry>
        </mxCell>
        <mxCell id="eATVURtBOzmaOET8jVd0-15" value="descrição" style="shape=partialRectangle;html=1;whiteSpace=wrap;connectable=0;strokeColor=inherit;overflow=hidden;fillColor=none;top=0;left=0;bottom=0;right=0;pointerEvents=1;fontSize=16;" vertex="1" parent="eATVURtBOzmaOET8jVd0-13">
          <mxGeometry x="150" width="490" height="20" as="geometry">
            <mxRectangle width="490" height="20" as="alternateBounds" />
          </mxGeometry>
        </mxCell>
        <mxCell id="eATVURtBOzmaOET8jVd0-16" value="UNID" style="shape=partialRectangle;html=1;whiteSpace=wrap;connectable=0;strokeColor=inherit;overflow=hidden;fillColor=none;top=0;left=0;bottom=0;right=0;pointerEvents=1;fontSize=16;" vertex="1" parent="eATVURtBOzmaOET8jVd0-13">
          <mxGeometry x="640" width="250" height="20" as="geometry">
            <mxRectangle width="250" height="20" as="alternateBounds" />
          </mxGeometry>
        </mxCell>
        <mxCell id="eATVURtBOzmaOET8jVd0-17" value="" style="shape=tableRow;horizontal=0;startSize=0;swimlaneHead=0;swimlaneBody=0;strokeColor=inherit;top=0;left=0;bottom=0;right=0;collapsible=0;dropTarget=0;fillColor=none;points=[[0,0.5],[1,0.5]];portConstraint=eastwest;fontSize=16;" vertex="1" parent="eATVURtBOzmaOET8jVd0-12">
          <mxGeometry y="50" width="890" height="30" as="geometry" />
        </mxCell>
        <mxCell id="eATVURtBOzmaOET8jVd0-18" value="" style="shape=partialRectangle;html=1;whiteSpace=wrap;connectable=0;strokeColor=inherit;overflow=hidden;fillColor=none;top=0;left=0;bottom=0;right=0;pointerEvents=1;fontSize=16;" vertex="1" parent="eATVURtBOzmaOET8jVd0-17">
          <mxGeometry width="150" height="30" as="geometry">
            <mxRectangle width="150" height="30" as="alternateBounds" />
          </mxGeometry>
        </mxCell>
        <mxCell id="eATVURtBOzmaOET8jVd0-19" value="" style="shape=partialRectangle;html=1;whiteSpace=wrap;connectable=0;strokeColor=inherit;overflow=hidden;fillColor=none;top=0;left=0;bottom=0;right=0;pointerEvents=1;fontSize=16;" vertex="1" parent="eATVURtBOzmaOET8jVd0-17">
          <mxGeometry x="150" width="490" height="30" as="geometry">
            <mxRectangle width="490" height="30" as="alternateBounds" />
          </mxGeometry>
        </mxCell>
        <mxCell id="eATVURtBOzmaOET8jVd0-20" value="" style="shape=partialRectangle;html=1;whiteSpace=wrap;connectable=0;strokeColor=inherit;overflow=hidden;fillColor=none;top=0;left=0;bottom=0;right=0;pointerEvents=1;fontSize=16;" vertex="1" parent="eATVURtBOzmaOET8jVd0-17">
          <mxGeometry x="640" width="250" height="30" as="geometry">
            <mxRectangle width="250" height="30" as="alternateBounds" />
          </mxGeometry>
        </mxCell>
        <mxCell id="eATVURtBOzmaOET8jVd0-21" value="" style="shape=tableRow;horizontal=0;startSize=0;swimlaneHead=0;swimlaneBody=0;strokeColor=inherit;top=0;left=0;bottom=0;right=0;collapsible=0;dropTarget=0;fillColor=none;points=[[0,0.5],[1,0.5]];portConstraint=eastwest;fontSize=16;" vertex="1" parent="eATVURtBOzmaOET8jVd0-12">
          <mxGeometry y="80" width="890" height="30" as="geometry" />
        </mxCell>
        <mxCell id="eATVURtBOzmaOET8jVd0-22" value="" style="shape=partialRectangle;html=1;whiteSpace=wrap;connectable=0;strokeColor=inherit;overflow=hidden;fillColor=none;top=0;left=0;bottom=0;right=0;pointerEvents=1;fontSize=16;" vertex="1" parent="eATVURtBOzmaOET8jVd0-21">
          <mxGeometry width="150" height="30" as="geometry">
            <mxRectangle width="150" height="30" as="alternateBounds" />
          </mxGeometry>
        </mxCell>
        <mxCell id="eATVURtBOzmaOET8jVd0-23" value="" style="shape=partialRectangle;html=1;whiteSpace=wrap;connectable=0;strokeColor=inherit;overflow=hidden;fillColor=none;top=0;left=0;bottom=0;right=0;pointerEvents=1;fontSize=16;" vertex="1" parent="eATVURtBOzmaOET8jVd0-21">
          <mxGeometry x="150" width="490" height="30" as="geometry">
            <mxRectangle width="490" height="30" as="alternateBounds" />
          </mxGeometry>
        </mxCell>
        <mxCell id="eATVURtBOzmaOET8jVd0-24" value="" style="shape=partialRectangle;html=1;whiteSpace=wrap;connectable=0;strokeColor=inherit;overflow=hidden;fillColor=none;top=0;left=0;bottom=0;right=0;pointerEvents=1;fontSize=16;" vertex="1" parent="eATVURtBOzmaOET8jVd0-21">
          <mxGeometry x="640" width="250" height="30" as="geometry">
            <mxRectangle width="250" height="30" as="alternateBounds" />
          </mxGeometry>
        </mxCell>
        <mxCell id="eATVURtBOzmaOET8jVd0-26" value="Qtde Min" style="text;html=1;points=[];align=left;verticalAlign=top;spacingTop=-4;fontSize=14;fontFamily=Verdana" vertex="1" parent="1">
          <mxGeometry x="715" y="395" width="170" height="20" as="geometry" />
        </mxCell>
        <mxCell id="eATVURtBOzmaOET8jVd0-27" value="FD" style="rounded=1;whiteSpace=wrap;html=1;" vertex="1" parent="1">
          <mxGeometry x="580" y="415" width="120" height="20" as="geometry" />
        </mxCell>
        <mxCell id="eATVURtBOzmaOET8jVd0-28" value="ADD" style="labelPosition=center;verticalLabelPosition=middle;align=center;html=1;shape=mxgraph.basic.button;dx=10;whiteSpace=wrap;" vertex="1" parent="1">
          <mxGeometry x="850" y="385" width="100" height="60" as="geometry" />
        </mxCell>
        <mxCell id="eATVURtBOzmaOET8jVd0-29" value="Unidade" style="text;html=1;points=[];align=left;verticalAlign=top;spacingTop=-4;fontSize=14;fontFamily=Verdana" vertex="1" parent="1">
          <mxGeometry x="580" y="385" width="170" height="20" as="geometry" />
        </mxCell>
        <mxCell id="eATVURtBOzmaOET8jVd0-30" value="3" style="rounded=1;whiteSpace=wrap;html=1;" vertex="1" parent="1">
          <mxGeometry x="725" y="425" width="120" height="20" as="geometry" />
        </mxCell>
        <mxCell id="eATVURtBOzmaOET8jVd0-44" value="" style="shape=table;startSize=30;container=1;collapsible=0;childLayout=tableLayout;strokeColor=default;fontSize=16;" vertex="1" parent="1">
          <mxGeometry x="47.5" y="860" width="915" height="200" as="geometry" />
        </mxCell>
        <mxCell id="eATVURtBOzmaOET8jVd0-45" value="" style="shape=tableRow;horizontal=0;startSize=0;swimlaneHead=0;swimlaneBody=0;strokeColor=inherit;top=0;left=0;bottom=0;right=0;collapsible=0;dropTarget=0;fillColor=none;points=[[0,0.5],[1,0.5]];portConstraint=eastwest;fontSize=16;" vertex="1" parent="eATVURtBOzmaOET8jVd0-44">
          <mxGeometry y="30" width="915" height="30" as="geometry" />
        </mxCell>
        <mxCell id="eATVURtBOzmaOET8jVd0-46" value="Cotação" style="shape=partialRectangle;html=1;whiteSpace=wrap;connectable=0;strokeColor=inherit;overflow=hidden;fillColor=none;top=0;left=0;bottom=0;right=0;pointerEvents=1;fontSize=16;" vertex="1" parent="eATVURtBOzmaOET8jVd0-45">
          <mxGeometry width="96" height="30" as="geometry">
            <mxRectangle width="96" height="30" as="alternateBounds" />
          </mxGeometry>
        </mxCell>
        <mxCell id="eATVURtBOzmaOET8jVd0-47" value="Data de Validade&amp;nbsp;" style="shape=partialRectangle;html=1;whiteSpace=wrap;connectable=0;strokeColor=inherit;overflow=hidden;fillColor=none;top=0;left=0;bottom=0;right=0;pointerEvents=1;fontSize=16;" vertex="1" parent="eATVURtBOzmaOET8jVd0-45">
          <mxGeometry x="96" width="209" height="30" as="geometry">
            <mxRectangle width="209" height="30" as="alternateBounds" />
          </mxGeometry>
        </mxCell>
        <mxCell id="eATVURtBOzmaOET8jVd0-48" value="Status" style="shape=partialRectangle;html=1;whiteSpace=wrap;connectable=0;strokeColor=inherit;overflow=hidden;fillColor=none;top=0;left=0;bottom=0;right=0;pointerEvents=1;fontSize=16;" vertex="1" parent="eATVURtBOzmaOET8jVd0-45">
          <mxGeometry x="305" width="320" height="30" as="geometry">
            <mxRectangle width="320" height="30" as="alternateBounds" />
          </mxGeometry>
        </mxCell>
        <mxCell id="eATVURtBOzmaOET8jVd0-57" value="Açoes" style="shape=partialRectangle;html=1;whiteSpace=wrap;connectable=0;strokeColor=inherit;overflow=hidden;fillColor=none;top=0;left=0;bottom=0;right=0;pointerEvents=1;fontSize=16;" vertex="1" parent="eATVURtBOzmaOET8jVd0-45">
          <mxGeometry x="625" width="290" height="30" as="geometry">
            <mxRectangle width="290" height="30" as="alternateBounds" />
          </mxGeometry>
        </mxCell>
        <mxCell id="eATVURtBOzmaOET8jVd0-49" value="" style="shape=tableRow;horizontal=0;startSize=0;swimlaneHead=0;swimlaneBody=0;strokeColor=inherit;top=0;left=0;bottom=0;right=0;collapsible=0;dropTarget=0;fillColor=none;points=[[0,0.5],[1,0.5]];portConstraint=eastwest;fontSize=16;" vertex="1" parent="eATVURtBOzmaOET8jVd0-44">
          <mxGeometry y="60" width="915" height="70" as="geometry" />
        </mxCell>
        <mxCell id="eATVURtBOzmaOET8jVd0-50" value="" style="shape=partialRectangle;html=1;whiteSpace=wrap;connectable=0;strokeColor=inherit;overflow=hidden;fillColor=none;top=0;left=0;bottom=0;right=0;pointerEvents=1;fontSize=16;" vertex="1" parent="eATVURtBOzmaOET8jVd0-49">
          <mxGeometry width="96" height="70" as="geometry">
            <mxRectangle width="96" height="70" as="alternateBounds" />
          </mxGeometry>
        </mxCell>
        <mxCell id="eATVURtBOzmaOET8jVd0-51" value="" style="shape=partialRectangle;html=1;whiteSpace=wrap;connectable=0;strokeColor=inherit;overflow=hidden;fillColor=none;top=0;left=0;bottom=0;right=0;pointerEvents=1;fontSize=16;" vertex="1" parent="eATVURtBOzmaOET8jVd0-49">
          <mxGeometry x="96" width="209" height="70" as="geometry">
            <mxRectangle width="209" height="70" as="alternateBounds" />
          </mxGeometry>
        </mxCell>
        <mxCell id="eATVURtBOzmaOET8jVd0-52" value="Em requisição, Solicitado cotação. Vencido, Cotaçào Encerrada, Analise de preço, Pedido Enviados" style="shape=partialRectangle;html=1;whiteSpace=wrap;connectable=0;strokeColor=inherit;overflow=hidden;fillColor=none;top=0;left=0;bottom=0;right=0;pointerEvents=1;fontSize=16;" vertex="1" parent="eATVURtBOzmaOET8jVd0-49">
          <mxGeometry x="305" width="320" height="70" as="geometry">
            <mxRectangle width="320" height="70" as="alternateBounds" />
          </mxGeometry>
        </mxCell>
        <mxCell id="eATVURtBOzmaOET8jVd0-58" value="Editar, Remover, Analise de preço, enviar pedidos" style="shape=partialRectangle;html=1;whiteSpace=wrap;connectable=0;strokeColor=inherit;overflow=hidden;fillColor=none;top=0;left=0;bottom=0;right=0;pointerEvents=1;fontSize=16;" vertex="1" parent="eATVURtBOzmaOET8jVd0-49">
          <mxGeometry x="625" width="290" height="70" as="geometry">
            <mxRectangle width="290" height="70" as="alternateBounds" />
          </mxGeometry>
        </mxCell>
        <mxCell id="eATVURtBOzmaOET8jVd0-53" value="" style="shape=tableRow;horizontal=0;startSize=0;swimlaneHead=0;swimlaneBody=0;strokeColor=inherit;top=0;left=0;bottom=0;right=0;collapsible=0;dropTarget=0;fillColor=none;points=[[0,0.5],[1,0.5]];portConstraint=eastwest;fontSize=16;" vertex="1" parent="eATVURtBOzmaOET8jVd0-44">
          <mxGeometry y="130" width="915" height="70" as="geometry" />
        </mxCell>
        <mxCell id="eATVURtBOzmaOET8jVd0-54" value="" style="shape=partialRectangle;html=1;whiteSpace=wrap;connectable=0;strokeColor=inherit;overflow=hidden;fillColor=none;top=0;left=0;bottom=0;right=0;pointerEvents=1;fontSize=16;" vertex="1" parent="eATVURtBOzmaOET8jVd0-53">
          <mxGeometry width="96" height="70" as="geometry">
            <mxRectangle width="96" height="70" as="alternateBounds" />
          </mxGeometry>
        </mxCell>
        <mxCell id="eATVURtBOzmaOET8jVd0-55" value="" style="shape=partialRectangle;html=1;whiteSpace=wrap;connectable=0;strokeColor=inherit;overflow=hidden;fillColor=none;top=0;left=0;bottom=0;right=0;pointerEvents=1;fontSize=16;" vertex="1" parent="eATVURtBOzmaOET8jVd0-53">
          <mxGeometry x="96" width="209" height="70" as="geometry">
            <mxRectangle width="209" height="70" as="alternateBounds" />
          </mxGeometry>
        </mxCell>
        <mxCell id="eATVURtBOzmaOET8jVd0-56" value="" style="shape=partialRectangle;html=1;whiteSpace=wrap;connectable=0;strokeColor=inherit;overflow=hidden;fillColor=none;top=0;left=0;bottom=0;right=0;pointerEvents=1;fontSize=16;" vertex="1" parent="eATVURtBOzmaOET8jVd0-53">
          <mxGeometry x="305" width="320" height="70" as="geometry">
            <mxRectangle width="320" height="70" as="alternateBounds" />
          </mxGeometry>
        </mxCell>
        <mxCell id="eATVURtBOzmaOET8jVd0-59" style="shape=partialRectangle;html=1;whiteSpace=wrap;connectable=0;strokeColor=inherit;overflow=hidden;fillColor=none;top=0;left=0;bottom=0;right=0;pointerEvents=1;fontSize=16;" vertex="1" parent="eATVURtBOzmaOET8jVd0-53">
          <mxGeometry x="625" width="290" height="70" as="geometry">
            <mxRectangle width="290" height="70" as="alternateBounds" />
          </mxGeometry>
        </mxCell>
        <mxCell id="eATVURtBOzmaOET8jVd0-73" value="Grupo de Fornecedor" style="text;html=1;points=[];align=left;verticalAlign=top;spacingTop=-4;fontSize=14;fontFamily=Verdana" vertex="1" parent="1">
          <mxGeometry x="60" y="600" width="170" height="20" as="geometry" />
        </mxCell>
        <mxCell id="eATVURtBOzmaOET8jVd0-74" value="Especial" style="rounded=1;whiteSpace=wrap;html=1;align=left;" vertex="1" parent="1">
          <mxGeometry x="60" y="630" width="510" height="20" as="geometry" />
        </mxCell>
        <mxCell id="eATVURtBOzmaOET8jVd0-75" value="Fornecedor" style="rounded=0;whiteSpace=wrap;html=1;" vertex="1" parent="1">
          <mxGeometry x="80" y="1320" width="120" height="60" as="geometry" />
        </mxCell>
        <mxCell id="eATVURtBOzmaOET8jVd0-83" style="edgeStyle=orthogonalEdgeStyle;rounded=0;orthogonalLoop=1;jettySize=auto;html=1;entryX=0.408;entryY=0.1;entryDx=0;entryDy=0;entryPerimeter=0;" edge="1" parent="1" source="eATVURtBOzmaOET8jVd0-76" target="eATVURtBOzmaOET8jVd0-75">
          <mxGeometry relative="1" as="geometry" />
        </mxCell>
        <mxCell id="eATVURtBOzmaOET8jVd0-76" value="Grupo de Fornecedores" style="rounded=0;whiteSpace=wrap;html=1;" vertex="1" parent="1">
          <mxGeometry x="20" y="1140" width="120" height="60" as="geometry" />
        </mxCell>
        <mxCell id="eATVURtBOzmaOET8jVd0-86" style="edgeStyle=orthogonalEdgeStyle;rounded=0;orthogonalLoop=1;jettySize=auto;html=1;" edge="1" parent="1" source="eATVURtBOzmaOET8jVd0-77" target="eATVURtBOzmaOET8jVd0-80">
          <mxGeometry relative="1" as="geometry" />
        </mxCell>
        <mxCell id="eATVURtBOzmaOET8jVd0-77" value="Produto" style="rounded=0;whiteSpace=wrap;html=1;fontStyle=1" vertex="1" parent="1">
          <mxGeometry x="330" y="1500" width="120" height="60" as="geometry" />
        </mxCell>
        <mxCell id="eATVURtBOzmaOET8jVd0-84" style="edgeStyle=orthogonalEdgeStyle;rounded=0;orthogonalLoop=1;jettySize=auto;html=1;entryX=0.5;entryY=1;entryDx=0;entryDy=0;" edge="1" parent="1" source="eATVURtBOzmaOET8jVd0-78" target="eATVURtBOzmaOET8jVd0-75">
          <mxGeometry relative="1" as="geometry" />
        </mxCell>
        <mxCell id="eATVURtBOzmaOET8jVd0-85" style="edgeStyle=orthogonalEdgeStyle;rounded=0;orthogonalLoop=1;jettySize=auto;html=1;entryX=0;entryY=0.5;entryDx=0;entryDy=0;" edge="1" parent="1" source="eATVURtBOzmaOET8jVd0-78" target="eATVURtBOzmaOET8jVd0-77">
          <mxGeometry relative="1" as="geometry" />
        </mxCell>
        <mxCell id="eATVURtBOzmaOET8jVd0-78" value="Conversão de Unidade de médida" style="rounded=0;whiteSpace=wrap;html=1;" vertex="1" parent="1">
          <mxGeometry x="80" y="1500" width="120" height="60" as="geometry" />
        </mxCell>
        <mxCell id="eATVURtBOzmaOET8jVd0-87" style="edgeStyle=orthogonalEdgeStyle;rounded=0;orthogonalLoop=1;jettySize=auto;html=1;" edge="1" parent="1" source="eATVURtBOzmaOET8jVd0-79" target="eATVURtBOzmaOET8jVd0-80">
          <mxGeometry relative="1" as="geometry" />
        </mxCell>
        <mxCell id="eATVURtBOzmaOET8jVd0-90" style="edgeStyle=orthogonalEdgeStyle;rounded=0;orthogonalLoop=1;jettySize=auto;html=1;" edge="1" parent="1" source="eATVURtBOzmaOET8jVd0-79" target="eATVURtBOzmaOET8jVd0-81">
          <mxGeometry relative="1" as="geometry" />
        </mxCell>
        <mxCell id="eATVURtBOzmaOET8jVd0-79" value="Cotação" style="rounded=0;whiteSpace=wrap;html=1;" vertex="1" parent="1">
          <mxGeometry x="390" y="1130" width="120" height="60" as="geometry" />
        </mxCell>
        <mxCell id="eATVURtBOzmaOET8jVd0-88" style="edgeStyle=orthogonalEdgeStyle;rounded=0;orthogonalLoop=1;jettySize=auto;html=1;" edge="1" parent="1" source="eATVURtBOzmaOET8jVd0-80" target="eATVURtBOzmaOET8jVd0-75">
          <mxGeometry relative="1" as="geometry" />
        </mxCell>
        <mxCell id="eATVURtBOzmaOET8jVd0-80" value="Cotação Itens" style="rounded=0;whiteSpace=wrap;html=1;" vertex="1" parent="1">
          <mxGeometry x="400" y="1260" width="120" height="60" as="geometry" />
        </mxCell>
        <mxCell id="eATVURtBOzmaOET8jVd0-89" style="edgeStyle=orthogonalEdgeStyle;rounded=0;orthogonalLoop=1;jettySize=auto;html=1;" edge="1" parent="1" source="eATVURtBOzmaOET8jVd0-81" target="eATVURtBOzmaOET8jVd0-82">
          <mxGeometry relative="1" as="geometry" />
        </mxCell>
        <mxCell id="eATVURtBOzmaOET8jVd0-81" value="Pedido" style="rounded=0;whiteSpace=wrap;html=1;" vertex="1" parent="1">
          <mxGeometry x="605" y="1215" width="120" height="60" as="geometry" />
        </mxCell>
        <mxCell id="eATVURtBOzmaOET8jVd0-82" value="Pedido Itens" style="rounded=0;whiteSpace=wrap;html=1;" vertex="1" parent="1">
          <mxGeometry x="605" y="1330" width="120" height="60" as="geometry" />
        </mxCell>
      </root>
    </mxGraphModel>
  </diagram>
</mxfile>
